<?xml version="1.0" standalone="no"?>
<!DOCTYPE svg PUBLIC "-//W3C//DTD SVG 20010904//EN"
 "http://www.w3.org/TR/2001/REC-SVG-20010904/DTD/svg10.dtd">
<svg version="1.0" xmlns="http://www.w3.org/2000/svg"
 width="1600.000000pt" height="1013.000000pt" viewBox="0 0 1600.000000 1013.000000"
 preserveAspectRatio="xMidYMid meet">

<g transform="translate(0.000000,1013.000000) scale(0.100000,-0.100000)"
fill="#000000" stroke="none">
<path d="M9669 7465 c-339 -47 -638 -173 -899 -380 -36 -29 -387 -374 -779
-769 -393 -394 -719 -716 -723 -716 -5 0 -423 414 -929 919 l-919 919 0 -1849
0 -1849 305 0 305 0 0 1107 0 1108 613 -613 c336 -336 616 -612 621 -612 6 0
426 416 935 925 531 530 958 948 1001 981 147 109 379 203 548 220 l62 7 0
308 0 309 -22 -1 c-13 -1 -66 -7 -119 -14z"/>
<path d="M10050 7160 l0 -320 268 1 267 0 325 320 325 319 -593 0 -592 0 0
-320z"/>
<path d="M8622 5651 c-28 -28 -51 -56 -50 -63 2 -7 -3 -12 -11 -10 -18 4 -92
-68 -84 -81 3 -6 1 -7 -5 -3 -6 3 -27 -10 -47 -31 -22 -23 -31 -39 -24 -43 7
-5 5 -9 -6 -13 -10 -5 -14 -3 -9 4 15 26 -18 0 -86 -65 -48 -45 -68 -71 -60
-76 8 -5 7 -9 -5 -13 -9 -4 -13 -3 -10 3 17 27 -16 5 -55 -37 l-43 -47 22 -75
c35 -118 96 -263 155 -369 316 -561 873 -902 1536 -938 426 -23 921 141 1250
415 74 61 200 183 200 192 0 5 -357 10 -792 12 l-793 3 -95 26 c-420 117 -738
417 -863 815 -33 104 -46 174 -60 322 l-12 123 -53 -51z m-262 -286 c0 -2 -10
-9 -22 -15 -22 -11 -22 -10 -4 4 21 17 26 19 26 11z m-44 -95 c0 -12 -4 -16
-9 -11 -5 5 -6 14 -3 20 10 15 12 14 12 -9z"/>
<path d="M4153 2439 c-104 -20 -198 -86 -234 -164 -23 -49 -25 -158 -4 -208
25 -60 119 -142 183 -160 20 -5 75 -12 121 -14 89 -5 179 13 230 45 32 19 81
63 81 72 0 4 -15 15 -34 25 l-33 18 -39 -30 c-51 -40 -94 -53 -179 -54 -81 0
-123 11 -176 46 -85 56 -105 184 -42 262 48 60 111 86 210 86 77 0 89 -3 157
-38 68 -35 77 -37 105 -26 29 13 29 14 15 37 -26 39 -107 84 -180 99 -76 16
-117 17 -181 4z"/>
<path d="M5428 2440 c-65 -11 -163 -66 -199 -111 -84 -107 -77 -247 18 -341
71 -69 127 -91 248 -96 84 -3 109 0 156 17 121 46 186 122 196 230 19 201
-177 342 -419 301z m204 -97 c56 -22 115 -94 124 -149 13 -91 -56 -189 -151
-213 -155 -39 -303 21 -335 137 -13 47 -13 56 2 104 35 119 215 179 360 121z"/>
<path d="M6550 2165 l0 -265 45 0 45 0 2 211 3 211 132 -167 132 -166 132 165
c73 91 135 166 138 166 3 0 6 -93 6 -207 l0 -208 43 -3 42 -3 0 265 0 266 -54
0 -54 0 -123 -155 c-67 -85 -125 -155 -129 -155 -6 0 -32 32 -180 218 l-73 92
-54 0 -53 0 0 -265z"/>
<path d="M8000 2164 l0 -265 43 3 42 3 3 98 3 97 164 0 c187 0 249 10 289 46
34 33 46 63 46 122 0 67 -26 112 -80 140 -42 21 -55 22 -277 22 l-233 0 0
-266z m481 157 c21 -25 25 -71 9 -101 -17 -31 -67 -40 -236 -40 l-164 0 0 86
0 85 186 -3 c181 -3 186 -4 205 -27z"/>
<path d="M9372 2413 c-54 -104 -203 -384 -234 -440 l-39 -73 50 0 51 0 30 60
30 60 178 0 178 0 29 -60 29 -60 48 0 c26 0 48 1 48 3 0 2 -61 117 -135 256
-74 139 -135 257 -135 262 0 5 -27 9 -60 9 -46 0 -61 -4 -68 -17z m137 -195
l62 -118 -130 0 c-72 0 -131 3 -131 6 0 17 125 243 131 236 3 -4 34 -60 68
-124z"/>
<path d="M10410 2165 l0 -265 45 0 45 0 2 215 3 215 199 -215 199 -215 53 0
54 0 0 265 0 265 -43 0 -43 0 -3 -207 c-1 -115 -4 -209 -5 -210 -1 -2 -90 92
-197 207 l-194 209 -57 1 -58 0 0 -265z"/>
<path d="M11650 2424 c0 -3 63 -75 140 -159 l140 -153 0 -95 c0 -70 4 -98 14
-107 17 -13 57 -10 68 5 4 6 8 52 8 104 l0 93 142 157 142 156 -52 3 c-34 2
-57 -2 -65 -10 -13 -14 -198 -219 -205 -228 -4 -5 -74 67 -179 183 -50 55 -53
57 -102 57 -28 0 -51 -3 -51 -6z"/>
</g>
</svg>
