<?xml version="1.0" standalone="no"?>
<!DOCTYPE svg PUBLIC "-//W3C//DTD SVG 20010904//EN"
 "http://www.w3.org/TR/2001/REC-SVG-20010904/DTD/svg10.dtd">
<svg version="1.0" xmlns="http://www.w3.org/2000/svg"
 width="512.000000pt" height="512.000000pt" viewBox="0 0 512.000000 512.000000"
 preserveAspectRatio="xMidYMid meet">
<metadata>
Created by potrace 1.16, written by Peter Selinger 2001-2019
</metadata>
<g transform="translate(0.000000,512.000000) scale(0.100000,-0.100000)"
fill="#000000" stroke="none">
<path d="M379 5097 c-175 -60 -306 -192 -359 -366 -20 -62 -20 -104 -20 -2171
0 -2067 0 -2109 20 -2171 53 -174 184 -306 359 -366 l66 -22 2115 0 2115 0 66
22 c175 60 306 192 359 366 20 62 20 104 20 2175 l-1 2111 -22 66 c-61 180
-196 309 -376 363 -50 14 -252 16 -2165 16 l-2111 -1 -66 -22z m4291 -306 c61
-32 87 -57 118 -116 l27 -50 0 -2065 c0 -1997 -1 -2066 -19 -2100 -34 -64 -63
-95 -117 -125 l-54 -30 -857 -3 -858 -3 0 601 0 600 301 0 c283 0 304 1 334
20 17 11 39 34 48 52 26 51 217 831 217 885 0 54 -22 95 -66 124 -27 18 -54
19 -432 19 l-403 0 3 285 c2 216 6 287 16 297 10 10 84 14 305 18 319 5 318 5
358 67 18 26 19 57 19 482 0 434 -1 455 -20 486 -41 67 -42 67 -460 62 -350
-4 -380 -5 -455 -26 -278 -78 -500 -231 -659 -454 -62 -87 -139 -251 -172
-367 -27 -94 -27 -97 -31 -472 l-4 -378 -252 0 c-278 0 -285 -2 -328 -66 -18
-27 -19 -55 -19 -484 0 -599 -31 -550 348 -550 l252 0 0 -600 0 -601 -657 3
-658 3 -50 27 c-59 31 -84 57 -116 118 l-24 45 0 2065 0 2065 24 45 c42 81
102 126 186 141 22 4 956 6 2075 5 l2035 -1 45 -24z m-1360 -1040 l0 -250
-227 -3 c-219 -3 -230 -4 -278 -28 -27 -13 -70 -45 -95 -70 -25 -25 -57 -67
-70 -95 l-25 -50 -3 -425 c-4 -473 -4 -469 63 -510 31 -19 51 -20 409 -20 207
0 376 -2 376 -5 0 -3 -28 -115 -61 -250 l-61 -245 -317 0 c-349 0 -348 0 -392
-66 -18 -28 -19 -60 -19 -731 l0 -703 -250 0 -250 0 0 703 c0 671 -1 703 -19
731 -43 64 -50 66 -328 66 l-253 0 0 250 0 250 253 0 c278 0 285 2 328 66 18
27 19 54 19 389 0 198 5 406 10 462 18 204 102 383 246 527 97 97 204 163 333
206 111 37 196 47 434 49 l177 1 0 -249z"/>
</g>
</svg>
