<?xml version="1.0" standalone="no"?>
<!DOCTYPE svg PUBLIC "-//W3C//DTD SVG 20010904//EN"
 "http://www.w3.org/TR/2001/REC-SVG-20010904/DTD/svg10.dtd">
<svg version="1.0" xmlns="http://www.w3.org/2000/svg"
 width="512.000000pt" height="512.000000pt" viewBox="0 0 512.000000 512.000000"
 preserveAspectRatio="xMidYMid meet">
<metadata>
Created by potrace 1.16, written by Peter Selinger 2001-2019
</metadata>
<g transform="translate(0.000000,512.000000) scale(0.100000,-0.100000)"
fill="#000000" stroke="none">
<path d="M0 2560 l0 -2560 2560 0 2560 0 0 2560 0 2560 -2560 0 -2560 0 0
-2560z m4800 0 l0 -2240 -2240 0 -2240 0 0 2240 0 2240 2240 0 2240 0 0 -2240z"/>
<path d="M1622 4219 c-350 -46 -634 -311 -713 -664 -11 -48 -14 -246 -14
-1000 l0 -940 22 -84 c81 -303 303 -527 609 -613 l79 -23 955 0 955 0 80 22
c302 85 529 314 608 613 l22 85 0 940 c0 754 -3 952 -14 1000 -72 319 -300
558 -620 648 -75 21 -89 21 -991 23 -503 1 -943 -2 -978 -7z m1818 -369 c211
-27 383 -199 410 -410 12 -99 12 -1661 0 -1760 -27 -208 -197 -380 -405 -410
-93 -13 -1677 -13 -1770 0 -208 30 -378 202 -405 410 -12 99 -12 1661 0 1760
27 206 200 383 400 409 92 12 1678 13 1770 1z"/>
<path d="M3375 3638 c-90 -31 -140 -111 -133 -212 8 -133 118 -213 252 -184
135 28 201 202 122 317 -51 73 -157 108 -241 79z"/>
<path d="M2410 3409 c-84 -14 -212 -62 -291 -109 -151 -89 -297 -261 -358
-420 -130 -336 -51 -696 207 -942 334 -319 849 -319 1184 0 289 276 352 700
155 1052 -57 103 -214 260 -317 317 -173 97 -385 134 -580 102z m258 -374 c93
-22 159 -60 235 -135 79 -80 120 -159 139 -267 53 -314 -241 -608 -554 -555
-211 36 -375 200 -410 410 -40 237 123 481 362 544 81 21 147 22 228 3z"/>
</g>
</svg>
