<?xml version="1.0" standalone="no"?>
<!DOCTYPE svg PUBLIC "-//W3C//DTD SVG 20010904//EN"
 "http://www.w3.org/TR/2001/REC-SVG-20010904/DTD/svg10.dtd">
<svg version="1.0" xmlns="http://www.w3.org/2000/svg"
 width="512.000000pt" height="512.000000pt" viewBox="0 0 512.000000 512.000000"
 preserveAspectRatio="xMidYMid meet">

<g transform="translate(0.000000,512.000000) scale(0.100000,-0.100000)"
fill="#000000" stroke="none">
<path d="M78 5099 c-23 -12 -46 -35 -58 -59 -20 -39 -20 -54 -20 -2480 0
-2427 0 -2441 20 -2480 13 -26 34 -47 60 -60 39 -20 53 -20 2480 -20 2427 0
2441 0 2480 20 26 13 47 34 60 60 20 39 20 53 20 2480 0 2427 0 2441 -20 2480
-13 26 -34 47 -60 60 -39 20 -53 20 -2482 20 -2413 -1 -2443 -1 -2480 -21z
m4742 -2539 l0 -2260 -2260 0 -2260 0 0 2260 0 2260 2260 0 2260 0 0 -2260z"/>
<path d="M1030 4514 c-250 -54 -432 -265 -447 -519 -10 -170 44 -312 162 -430
118 -118 241 -169 405 -168 422 3 685 438 498 822 -45 94 -153 200 -249 246
-129 61 -244 76 -369 49z m243 -321 c88 -49 138 -134 136 -237 -3 -233 -286
-348 -451 -184 -94 94 -103 247 -22 353 30 39 97 83 147 96 53 13 136 1 190
-28z"/>
<path d="M723 3080 c-25 -11 -51 -33 -63 -52 -20 -33 -20 -47 -20 -1183 0
-1137 0 -1150 20 -1183 13 -20 38 -41 65 -53 43 -19 65 -20 437 -17 l393 3 33
23 c72 52 67 -42 67 1227 0 1126 0 1140 -20 1175 -12 21 -39 44 -65 58 -44 22
-50 22 -425 22 -353 0 -383 -2 -422 -20z m632 -1235 l0 -950 -207 -3 -208 -2
0 955 0 955 208 -2 207 -3 0 -950z"/>
<path d="M2094 3080 c-25 -13 -49 -35 -62 -59 l-22 -39 0 -1137 0 -1137 22
-39 c14 -25 37 -46 64 -59 40 -20 57 -21 437 -18 382 3 397 4 423 24 15 11 37
33 48 48 20 27 21 42 26 574 l5 547 31 65 c39 83 74 123 127 149 117 57 236
-10 299 -167 23 -56 23 -64 28 -599 5 -527 6 -542 26 -569 11 -15 33 -37 48
-48 26 -20 41 -21 425 -24 l397 -3 43 23 c87 46 82 -5 79 823 l-3 730 -27 98
c-31 112 -96 255 -158 348 -99 148 -286 301 -450 370 -260 109 -568 101 -811
-22 l-57 -28 -6 39 c-8 51 -57 106 -104 120 -22 6 -188 10 -412 10 -356 0
-377 -1 -416 -20z m636 -388 c0 -129 14 -164 81 -200 51 -27 108 -25 145 5 12
10 53 44 91 76 84 72 171 122 271 155 66 22 95 26 202 26 111 0 134 -3 205
-28 238 -82 410 -264 487 -516 22 -74 22 -83 26 -697 l3 -623 -210 0 -210 0
-3 458 c-4 512 -4 507 -79 661 -48 97 -152 209 -235 253 -259 138 -557 25
-699 -265 -71 -147 -75 -180 -75 -677 l0 -430 -210 0 -210 0 0 955 0 955 210
0 210 0 0 -108z"/>
</g>
</svg>
