<?xml version="1.0" standalone="no"?>
<!DOCTYPE svg PUBLIC "-//W3C//DTD SVG 20010904//EN"
 "http://www.w3.org/TR/2001/REC-SVG-20010904/DTD/svg10.dtd">
<svg version="1.0" xmlns="http://www.w3.org/2000/svg"
 width="512.000000pt" height="512.000000pt" viewBox="0 0 512.000000 512.000000"
 preserveAspectRatio="xMidYMid meet">
<metadata>
Created by potrace 1.16, written by Peter Selinger 2001-2019
</metadata>
<g transform="translate(0.000000,512.000000) scale(0.100000,-0.100000)"
fill="#000000" stroke="none">
<path d="M0 2560 l0 -2560 2560 0 2560 0 0 2560 0 2560 -2560 0 -2560 0 0
-2560z m4800 0 l0 -2240 -2240 0 -2240 0 0 2240 0 2240 2240 0 2240 0 0 -2240z"/>
<path d="M3104 3910 c-80 -11 -191 -50 -262 -92 -73 -43 -188 -158 -231 -231
-75 -128 -112 -298 -94 -434 l9 -73 -24 0 c-41 0 -232 30 -317 50 -194 45
-428 146 -600 258 -130 84 -226 165 -349 292 -123 127 -110 127 -158 10 -69
-167 -58 -392 27 -560 36 -70 113 -168 168 -211 l50 -40 -44 7 c-68 9 -148 33
-201 60 l-48 24 0 -57 c0 -83 25 -175 72 -273 33 -68 57 -100 127 -170 90 -89
167 -138 271 -171 30 -10 51 -18 45 -19 -5 0 -41 -5 -80 -10 -38 -5 -98 -5
-132 -1 -77 9 -78 4 -28 -95 69 -139 175 -243 310 -309 75 -36 174 -65 223
-65 17 0 33 -4 36 -9 9 -14 -146 -109 -254 -158 -197 -88 -412 -130 -615 -120
-117 6 -119 6 -96 -12 43 -33 215 -120 320 -161 189 -75 367 -115 582 -130
399 -29 811 66 1135 260 263 158 496 394 663 672 174 290 281 676 281 1013 0
79 1 84 27 100 71 47 313 307 313 337 0 3 -49 -11 -109 -33 -60 -21 -144 -45
-187 -53 l-79 -14 30 21 c96 69 185 183 230 292 13 33 23 61 21 62 -1 1 -36
-15 -78 -37 -91 -48 -188 -86 -282 -110 l-70 -17 -64 53 c-148 122 -350 180
-538 154z"/>
</g>
</svg>
